<svg id="circleinner" data-name="Layer 2" xmlns="http://www.w3.org/2000/svg" viewBox="0 0 74.09 74"><path fill="#fb3030" d="M74,37.78A37,37,0,0,0,37.78.05C15.76-.41.5,18.44.05,36.3c-.31,12.63,6.07,23,14.05,29.49a1.9,1.9,0,0,0,.4.45,36.79,36.79,0,0,0,9.13,5.42,2.17,2.17,0,0,0,.75.14,2,2,0,0,0,1.44-.61A2.2,2.2,0,0,0,26,68.5l-3.57-7.92a2,2,0,0,0-1.28-1.1,2,2,0,0,0-1.67.27L16,62.11c-6.91-6-12.19-15.2-11.93-25.72C4.45,20.46,18,3.69,37.7,4.05A32.93,32.93,0,0,1,59.86,60.79,32.77,32.77,0,0,1,39.39,70a3.76,3.76,0,1,0,.26,4A37.19,37.19,0,0,0,74,37.78Z"/></svg>