<svg id="cicrleouter" data-name="Layer 2" xmlns="http://www.w3.org/2000/svg" viewBox="0 0 118 117.82"><path fill="#fb3030" d="M62.23-.09a4,4,0,1,0,.38,4A55,55,0,0,1,59,113.82c-32.74,0-54.87-28.45-55-55-.09-17.67,9.15-32.89,21-42.68l6.87,4.76a2,2,0,0,0,1.14.36,1.93,1.93,0,0,0,.53-.07,2,2,0,0,0,1.29-1.09l6.44-14h0a1.78,1.78,0,0,0,.14-.5.69.69,0,0,0,0-.13,1.82,1.82,0,0,0,0-.52h0a1.86,1.86,0,0,0-.1-.39l-.05-.1-.06-.12a2,2,0,0,0-.29-.41v0h0a1.86,1.86,0,0,0-.41-.33l-.11-.06a2,2,0,0,0-1-.23h-.13a2.55,2.55,0,0,0-.52.11A59.37,59.37,0,0,0,24,11.78l-.33.23a.08.08,0,0,1,0,0C10.55,22.21-.1,38.54,0,58.83c.14,28.49,23.88,59,59,59A59,59,0,0,0,62.23-.09Z"/></svg>